<svg width="82" height="14" fill="none" xmlns="http://www.w3.org/2000/svg"><path d="M3.097 4.252c.2-.312.476-.564.828-.756.352-.192.764-.288 1.236-.288.552 0 1.052.14 1.5.42.448.28.8.68 1.056 1.2.264.52.396 1.124.396 1.812s-.132 1.296-.396 1.824c-.256.52-.608.924-1.056 1.212-.448.28-.948.42-1.5.42-.464 0-.876-.096-1.236-.288a2.267 2.267 0 01-.828-.744v4.128H1.045V3.304h2.052v.948zM6.025 6.64c0-.512-.144-.912-.432-1.2a1.379 1.379 0 00-1.044-.444c-.408 0-.756.148-1.044.444-.28.296-.42.7-.42 1.212s.14.916.42 1.212c.288.296.636.444 1.044.444.408 0 .756-.148 1.044-.444.288-.304.432-.712.432-1.224zm5.216-5.52V10H9.19V1.12h2.052zm1.08 5.52c0-.688.127-1.292.383-1.812.264-.52.62-.92 1.068-1.2.448-.28.948-.42 1.5-.42.472 0 .884.096 1.236.288.36.192.636.444.828.756v-.948h2.052V10h-2.052v-.948c-.2.312-.48.564-.84.756-.352.192-.764.288-1.236.288-.544 0-1.04-.14-1.488-.42a3.038 3.038 0 01-1.068-1.212c-.256-.528-.384-1.136-.384-1.824zm5.015.012c0-.512-.144-.916-.432-1.212a1.365 1.365 0 00-1.032-.444c-.408 0-.756.148-1.044.444-.28.288-.42.688-.42 1.2s.14.92.42 1.224c.288.296.636.444 1.044.444.408 0 .752-.148 1.032-.444.288-.296.432-.7.432-1.212zm6.26 3.444c-.583 0-1.103-.1-1.56-.3-.455-.2-.815-.472-1.08-.816a2.193 2.193 0 01-.443-1.176h2.028a.78.78 0 00.324.564c.192.144.428.216.708.216.256 0 .452-.048.588-.144a.47.47 0 00.216-.396c0-.192-.1-.332-.3-.42-.2-.096-.524-.2-.972-.312a9.887 9.887 0 01-1.2-.348 2.155 2.155 0 01-.828-.588c-.232-.272-.348-.636-.348-1.092 0-.384.104-.732.312-1.044.216-.32.528-.572.936-.756.416-.184.908-.276 1.476-.276.84 0 1.5.208 1.98.624.488.416.768.968.84 1.656h-1.896a.809.809 0 00-.312-.552c-.168-.136-.392-.204-.672-.204-.24 0-.424.048-.552.144a.426.426 0 00-.192.372c0 .192.1.336.3.432.208.096.528.192.96.288.496.128.9.256 1.212.384.312.12.584.32.816.6.24.272.364.64.372 1.104 0 .392-.112.744-.336 1.056-.216.304-.532.544-.948.72-.408.176-.884.264-1.428.264zm7.7-1.836V10h-1.044c-.744 0-1.324-.18-1.74-.54-.416-.368-.624-.964-.624-1.788V5.008h-.816V3.304h.816V1.672h2.052v1.632h1.344v1.704H29.94v2.688c0 .2.048.344.144.432.096.088.256.132.48.132h.732zm4.122-1.62c0-.688.128-1.292.384-1.812.264-.52.62-.92 1.068-1.2.448-.28.948-.42 1.5-.42.472 0 .884.096 1.236.288.36.192.636.444.828.756v-.948h2.052V10h-2.052v-.948c-.2.312-.48.564-.84.756-.352.192-.764.288-1.236.288-.544 0-1.04-.14-1.488-.42a3.038 3.038 0 01-1.068-1.212c-.256-.528-.384-1.136-.384-1.824zm5.016.012c0-.512-.144-.916-.432-1.212a1.365 1.365 0 00-1.032-.444c-.408 0-.756.148-1.044.444-.28.288-.42.688-.42 1.2s.14.92.42 1.224c.288.296.636.444 1.044.444.408 0 .752-.148 1.032-.444.288-.296.432-.7.432-1.212zm6.08-3.444c.473 0 .885.096 1.237.288.36.192.636.444.828.756v-.948h2.052v6.684c0 .616-.124 1.172-.372 1.668-.24.504-.612.904-1.116 1.2-.496.296-1.116.444-1.86.444-.992 0-1.796-.236-2.412-.708-.616-.464-.968-1.096-1.056-1.896h2.028a.95.95 0 00.456.6c.24.152.536.228.888.228.424 0 .76-.124 1.008-.372.256-.24.384-.628.384-1.164V9.04c-.2.312-.476.568-.828.768-.352.192-.764.288-1.236.288-.552 0-1.052-.14-1.5-.42a3.038 3.038 0 01-1.068-1.212c-.256-.528-.384-1.136-.384-1.824 0-.688.128-1.292.384-1.812.264-.52.62-.92 1.068-1.2.448-.28.948-.42 1.5-.42zm2.065 3.444c0-.512-.144-.916-.432-1.212a1.365 1.365 0 00-1.032-.444c-.408 0-.756.148-1.044.444-.28.288-.42.688-.42 1.2s.14.92.42 1.224c.288.296.636.444 1.044.444.408 0 .752-.148 1.032-.444.288-.296.432-.7.432-1.212zm9.848-.108c0 .192-.012.392-.036.6h-4.644c.032.416.164.736.396.96.24.216.532.324.876.324.512 0 .868-.216 1.068-.648h2.184c-.112.44-.316.836-.612 1.188a2.979 2.979 0 01-1.092.828c-.44.2-.932.3-1.476.3-.656 0-1.24-.14-1.752-.42a2.987 2.987 0 01-1.2-1.2c-.288-.52-.432-1.128-.432-1.824 0-.696.14-1.304.42-1.824.288-.52.688-.92 1.2-1.2.512-.28 1.1-.42 1.764-.42.648 0 1.224.136 1.728.408.504.272.896.66 1.176 1.164.288.504.432 1.092.432 1.764zm-2.1-.54c0-.352-.12-.632-.36-.84-.24-.208-.54-.312-.9-.312-.344 0-.636.1-.876.3-.232.2-.376.484-.432.852h2.568zm7.263-2.772c.784 0 1.408.256 1.872.768.472.504.708 1.2.708 2.088V10h-2.04V6.364c0-.448-.116-.796-.348-1.044-.232-.248-.544-.372-.936-.372s-.704.124-.936.372c-.232.248-.348.596-.348 1.044V10H59.51V3.304h2.052v.888c.208-.296.488-.528.84-.696a2.62 2.62 0 011.188-.264zm3.598 3.42c0-.696.14-1.304.42-1.824.288-.52.684-.92 1.188-1.2.512-.28 1.096-.42 1.752-.42.84 0 1.54.22 2.1.66.568.44.94 1.06 1.116 1.86H71.58c-.184-.512-.54-.768-1.068-.768-.376 0-.676.148-.9.444-.224.288-.336.704-.336 1.248s.112.964.336 1.26c.224.288.524.432.9.432.528 0 .884-.256 1.068-.768h2.184c-.176.784-.548 1.4-1.116 1.848-.568.448-1.268.672-2.1.672-.656 0-1.24-.14-1.752-.42-.504-.28-.9-.68-1.188-1.2-.28-.52-.42-1.128-.42-1.824zM81.7 3.304l-4.2 9.876h-2.208l1.536-3.408-2.724-6.468h2.292l1.548 4.188 1.536-4.188h2.22z" fill="#fff"/><path d="M33.4 10.096c-.36 0-.657-.104-.889-.312a1.058 1.058 0 01-.336-.792c0-.32.112-.588.336-.804.232-.216.528-.324.888-.324.352 0 .64.108.864.324.232.216.348.484.348.804 0 .312-.116.576-.348.792-.224.208-.512.312-.864.312z" fill="#FFF821"/></svg>